<svg width="69" height="67" viewBox="0 0 69 67" fill="none" xmlns="http://www.w3.org/2000/svg">
<g clip-path="url(#clip0_45_39)">
<mask id="mask0_45_39" style="mask-type:luminance" maskUnits="userSpaceOnUse" x="0" y="0" width="69" height="67">
<path d="M69 0H0V67H69V0Z" fill="white"/>
</mask>
<g mask="url(#mask0_45_39)">
<mask id="mask1_45_39" style="mask-type:luminance" maskUnits="userSpaceOnUse" x="0" y="16" width="37" height="51">
<path d="M0.0605469 45.5952L0.142688 16.8446L36.1377 37.3676L36.0555 66.1236L0.0605469 45.5952Z" fill="white"/>
</mask>
<g mask="url(#mask1_45_39)">
<path d="M3.33607 18.6622C1.1456 17.4234 0.143456 18.0617 0.132504 20.9071L0.0722656 41.5382C0.0722656 44.3781 1.07988 46.1795 3.25393 47.4182C5.42798 48.6569 6.45203 48.0186 6.4575 45.1787L6.48488 36.6482L3.63179 34.6143L3.60441 43.9995C3.60441 44.3241 3.4675 44.4052 3.25941 44.2916C3.14811 44.2182 3.05853 44.1169 2.99984 43.9981C2.94115 43.8793 2.91544 43.7473 2.92536 43.6154L2.9856 22.1025C2.9856 21.778 3.1225 21.6914 3.32512 21.805C3.43747 21.879 3.52803 21.981 3.58765 22.1007C3.64727 22.2204 3.67383 22.3535 3.66465 22.4866V30.4113L6.51774 31.6338V24.5638C6.51774 21.7185 5.51012 19.9171 3.33607 18.6784" fill="white"/>
<path d="M11.0735 48.7435C10.9608 48.6712 10.8698 48.5703 10.81 48.4513C10.7503 48.3324 10.724 48.1998 10.734 48.0673L10.7942 26.5382C10.7942 26.2136 10.9311 26.1271 11.1392 26.2461C11.2519 26.3197 11.3428 26.4216 11.4025 26.5414C11.4622 26.6612 11.4885 26.7945 11.4787 26.9277L11.413 48.4514C11.413 48.7814 11.2761 48.8625 11.0735 48.7435ZM11.1447 23.1141C8.95419 21.8753 7.94657 22.5136 7.9411 25.359L7.88086 45.9902C7.88086 48.8301 8.88848 50.6314 11.0625 51.8701C13.2366 53.1088 14.2551 52.4705 14.2661 49.6306L14.3263 28.9994C14.3263 26.1541 13.3187 24.3528 11.1447 23.1141Z" fill="white"/>
<path d="M22.212 29.5944L19.3644 27.9716L19.1289 38.7903C19.0468 42.1819 18.992 45.4816 18.9427 49.1005L18.5758 48.8895C18.543 45.2274 18.5101 41.8574 18.4444 38.4008L18.2746 27.3603L15.3887 25.7375L16.577 54.8939L20.8649 57.3389L22.212 29.6323" fill="white"/>
<path d="M28.0233 32.905L23.3028 30.2166L23.2207 58.6426L27.9412 61.3364L27.9521 58.2099L26.0847 57.1442L26.1121 46.9098L27.8097 47.878L27.8207 44.7514L26.1231 43.7832L26.1505 34.9659L28.0178 36.0316L28.0233 32.905Z" fill="white"/>
<path d="M32.1957 48.3702V38.4333L32.4367 38.5685C32.5782 38.6425 32.695 38.7555 32.7727 38.8938C32.8505 39.032 32.886 39.1896 32.8748 39.3474V48.2296C32.8748 48.5974 32.7379 48.6785 32.4312 48.5054L32.1957 48.3702ZM32.2998 35.3445L29.381 33.6785L29.2988 62.1316L32.1519 63.7544L32.1848 51.5563L32.4257 51.6915C32.5673 51.7655 32.684 51.8785 32.7618 52.0168C32.8396 52.1551 32.875 52.3127 32.8638 52.4705L32.8584 61.2011C32.8099 62.2432 32.9113 63.2868 33.1595 64.3007L36.0784 65.9614C35.8063 64.9398 35.6828 63.8853 35.7114 62.8294V55.543C35.7114 53.3468 34.9722 52.0269 33.5867 50.9559V50.5502C34.9776 51.0154 35.7279 50.5502 35.7334 48.5595V41.3814C35.7334 38.5415 34.7257 36.7401 32.2779 35.3445" fill="white"/>
</g>
<mask id="mask2_45_39" style="mask-type:luminance" maskUnits="userSpaceOnUse" x="1" y="0" width="67" height="38">
<path d="M1.62695 16.2496L29.9334 0L67.3905 21.3669L39.0896 37.6111L1.62695 16.2496Z" fill="white"/>
</mask>
<g mask="url(#mask2_45_39)">
<path d="M15.4596 11.7112L16.6589 11.0459C20.0651 9.16885 23.0934 7.49737 26.4613 5.60951L26.8227 5.81507C23.537 7.76243 20.6291 9.49342 17.3598 11.4462L16.2043 12.1386L15.4596 11.7112ZM35.3929 3.11581L31.1653 0.703247L1.79102 16.1523L4.58387 17.7751L12.3601 13.4476L13.1924 13.9237L5.68459 18.3755L8.47745 19.9983L35.3929 3.11581Z" fill="white"/>
<path d="M40.4795 6.01527L37.6867 4.42493L9.53906 20.5772L14.0022 23.1196L17.1017 21.3453L15.4369 20.3933L40.4795 6.01527Z" fill="white"/>
<path d="M21.1268 23.6388L31.1756 17.8725L31.411 18.0023C31.7068 18.1754 31.6794 18.3431 31.3179 18.5432L22.3096 23.7254C22.1734 23.825 22.0106 23.8832 21.8414 23.8929C21.6721 23.9025 21.5037 23.863 21.3568 23.7794L21.1268 23.6442M34.3134 16.0711L43.0753 11.0405L43.3108 11.1703C43.6065 11.3434 43.5791 11.5111 43.2232 11.7112L35.5018 16.1523C35.3653 16.2537 35.2014 16.313 35.0309 16.3226C34.8603 16.3323 34.6907 16.2918 34.5434 16.2064L34.3134 16.0766M46.2406 9.30407L43.3765 7.68127L15.2344 23.8227L18.0929 25.4455C20.4915 26.8141 22.6929 26.6897 25.5077 25.0723L32.7472 20.9179C34.8391 19.717 34.9925 18.792 33.9082 17.8508L34.3079 17.6236C35.9946 18.2132 37.5937 18.1267 39.5815 16.9961L45.6053 13.5342C48.4201 11.9114 48.6282 10.6564 46.2351 9.28785" fill="white"/>
<path d="M57.319 15.6113L54.5207 14.021L29.7957 28.2151C29.6801 28.2984 29.5444 28.3503 29.4022 28.3655C29.2599 28.3807 29.1161 28.3587 28.9852 28.3016C28.7826 28.188 28.81 28.0149 29.1331 27.8364L53.8581 13.6423L51.0652 12.0195L26.7838 25.9918C23.9635 27.6146 23.7554 28.8696 25.8857 30.0813C28.0159 31.293 30.2173 31.1632 33.0376 29.5404L57.319 15.6113Z" fill="white"/>
<path d="M67.3893 21.3615L63.8189 19.3276L59.0108 21.8592C55.7251 23.5794 51.4263 25.8946 48.3979 27.5552L48.0639 27.3659C50.9608 25.6241 54.9474 23.1629 57.9539 21.2858L62.3896 18.5108L58.7917 16.4607L30.666 32.6346L33.1851 34.0735L40.1398 30.0003C44.3017 27.5606 50.8951 23.5091 52.8282 22.2974L53.1841 22.5029L34.2255 34.6685L35.6932 35.5015L56.8532 24.5963L57.2091 24.7965C55.2048 25.8783 48.0201 29.6649 43.787 32.0828L36.7336 36.0966L39.2308 37.5192L67.3729 21.3615" fill="white"/>
</g>
<mask id="mask3_45_39" style="mask-type:luminance" maskUnits="userSpaceOnUse" x="37" y="22" width="32" height="45">
<path d="M37.8677 66.5943L37.791 40.1535L68.8465 22.4434L68.9232 48.8842L37.8677 66.5943Z" fill="white"/>
</mask>
<g mask="url(#mask3_45_39)">
<path d="M40.7752 62.018V52.5733L41.0161 52.4381C41.3337 52.2596 41.4706 52.3299 41.4761 52.6707V61.1363C41.4839 61.2905 41.4448 61.4435 41.3637 61.5756C41.2827 61.7077 41.1636 61.8128 41.0216 61.8774L40.7806 62.018M40.7478 49.6306V41.3976L40.9887 41.257C41.3009 41.0785 41.4378 41.1488 41.4433 41.4896V48.7435C41.4534 48.8982 41.4159 49.0522 41.3358 49.1854C41.2556 49.3187 41.1366 49.4248 40.9942 49.49L40.7533 49.6306M40.7916 38.4496L37.7852 40.1535L37.8618 66.5943L40.8518 64.8904C43.349 63.4623 44.3894 61.7367 44.384 59.0916V52.2866C44.384 50.323 43.6118 49.9282 42.1935 50.4799V50.1013C42.8854 49.6299 43.4477 48.996 43.8301 48.2567C44.2125 47.5174 44.4028 46.6957 44.384 45.8657V40.2022C44.384 37.557 43.3271 37.0215 40.8299 38.4496" fill="white"/>
<path d="M48.5397 50.442V49.3223C48.6 46.147 48.6493 43.3233 48.6876 40.1697L49.06 39.9587C49.1257 43.0583 49.1914 45.8116 49.2736 48.9058V49.9876L48.5014 50.4312M51.0424 32.5804L46.6724 35.0849L45.4512 62.2614L48.37 60.6007L48.485 53.3414L49.3557 52.8438L49.5145 59.9462L52.4333 58.2801L51.0697 32.5696" fill="white"/>
<path d="M60.3257 27.3009L57.7081 28.7939L57.7902 34.5873C57.8505 37.9844 58.2119 43.0259 58.4145 45.5574L58.0312 45.7738L56.5252 29.4647L53.4805 31.2065L53.5571 57.6473L56.1748 56.1543L56.0597 50.2041C55.994 46.1092 55.6655 41.944 55.4628 39.3854L55.8462 39.169L57.3576 55.4727L60.4024 53.7364L60.3257 27.2955" fill="white"/>
<path d="M68.7316 22.5083L65.884 24.1311L64.6847 35.1823L64.3123 35.3933C64.5149 33.2836 64.7285 31.0225 64.723 28.9886V24.7964L61.8809 26.43L61.9575 52.8708L64.7832 51.248L64.7504 40.0994L64.9092 39.0175L65.2542 38.8174C65.2542 40.8188 65.3582 43.0854 65.6266 46.1038L66.0209 50.5286L68.9178 48.8788L67.1544 33.1917L68.7261 22.4974" fill="white"/>
</g>
</g>
</g>
<defs>
<clipPath id="clip0_45_39">
<rect width="69" height="67" fill="white"/>
</clipPath>
</defs>
</svg>
